<svg width="23" height="15" viewBox="0 0 23 15" fill="none" xmlns="http://www.w3.org/2000/svg">
<path d="M4.95117 12.0996L4.98633 9.88477L5.95312 8.70703L7.23633 9.9375L7.21875 12.2578L5.9707 13.4531L4.95117 12.0996ZM7.92188 7.01953H10.2422L11.4727 8.19727L10.4707 9.44531L7.83398 9.375L6.72656 8.25L7.92188 7.01953ZM4.96875 6.89648L4.89844 4.33008L5.9707 2.87109L7.11328 4.04883L7.16602 6.65039L6.00586 7.79297L4.96875 6.89648ZM1.94531 7.24805L3.9668 7.19531L5.26758 8.26758L4.21289 9.41016H1.85742L0.785156 8.37305L1.94531 7.24805ZM19.9453 13.5938V9.81445L21.0176 8.35547L22.1602 9.55078L22.0898 13.6992L21.0703 15L19.9453 13.5938ZM19.9453 5.98242V2.20312L21.0176 0.744141L22.1602 1.93945L22.0898 6.08789L21.0703 7.38867L19.9453 5.98242Z" fill="#9AABD8"/>
</svg>
