<svg width="23" height="15" viewBox="0 0 23 15" fill="none" xmlns="http://www.w3.org/2000/svg">
<path d="M4.95117 12.0996L4.98633 9.88477L5.95312 8.70703L7.23633 9.9375L7.21875 12.2578L5.9707 13.4531L4.95117 12.0996ZM7.92188 7.01953H10.2422L11.4727 8.19727L10.4707 9.44531L7.83398 9.375L6.72656 8.25L7.92188 7.01953ZM4.96875 6.89648L4.89844 4.33008L5.9707 2.87109L7.11328 4.04883L7.16602 6.65039L6.00586 7.79297L4.96875 6.89648ZM1.94531 7.24805L3.9668 7.19531L5.26758 8.26758L4.21289 9.41016H1.85742L0.785156 8.37305L1.94531 7.24805ZM19.8047 0.849609L21.0527 1.99219L19.8926 3.01172L15.7969 3.0293L14.7422 1.9043L16.043 0.814453L19.8047 0.849609ZM19.3301 6.31641L20.5254 7.56445L19.418 8.67188L15.8848 8.72461L14.8828 7.49414L16.1133 6.31641H19.3301ZM22.3008 6.19336L21.2461 7.08984L20.1035 5.94727L20.1387 3.66211L21.2637 2.4668L22.3535 3.92578L22.3008 6.19336ZM14.9707 11.8887L13.7227 12.9082L12.7031 11.6074L12.7383 9.23438L14.0215 8.00391L14.9883 9.18164L14.9707 11.8887ZM19.6289 12.8379L20.877 13.9805L19.7168 15H15.2871L14.2324 13.875L15.5332 12.7852L19.6289 12.8379Z" fill="#9AABD8"/>
</svg>
