<svg width="23" height="15" viewBox="0 0 23 15" fill="none" xmlns="http://www.w3.org/2000/svg">
<path d="M4.95117 12.0996L4.98633 9.88477L5.95312 8.70703L7.23633 9.9375L7.21875 12.2578L5.9707 13.4531L4.95117 12.0996ZM7.92188 7.01953H10.2422L11.4727 8.19727L10.4707 9.44531L7.83398 9.375L6.72656 8.25L7.92188 7.01953ZM4.96875 6.89648L4.89844 4.33008L5.9707 2.87109L7.11328 4.04883L7.16602 6.65039L6.00586 7.79297L4.96875 6.89648ZM1.94531 7.24805L3.9668 7.19531L5.26758 8.26758L4.21289 9.41016H1.85742L0.785156 8.37305L1.94531 7.24805ZM19.752 5.8418L19.8398 3.57422L20.8242 2.37891L22.0898 3.62695L22.1426 6L21.1055 7.17773L19.752 5.8418ZM15.252 0.849609L19.0137 0.814453L20.3145 1.9043L19.2598 3.0293L15.1465 3.01172L14.0039 1.99219L15.252 0.849609ZM15.7266 6.31641H19.2598L20.4902 7.49414L19.4883 8.72461L15.6211 8.67188L14.5312 7.56445L15.7266 6.31641ZM20.0859 11.8887L20.0684 9.18164L21.0352 8.00391L22.3184 9.23438L22.3535 11.6074L21.3164 12.9082L20.0859 11.8887ZM15.4277 12.8379L19.5234 12.7852L20.8066 13.875L19.752 15H15.3223L14.2676 13.9805L15.4277 12.8379Z" fill="#9AABD8"/>
</svg>
